<svg width="52" height="54" viewBox="0 0 52 54" fill="none" xmlns="http://www.w3.org/2000/svg">
<g filter="url(#filter0_d_2212_1911)">
<path d="M9.80957 37.3333C9.80957 39.1014 10.5119 40.7971 11.7622 42.0474C13.0124 43.2976 14.7081 44 16.4762 44C18.2443 44 19.94 43.2976 21.1903 42.0474C22.4405 40.7971 23.1429 39.1014 23.1429 37.3333C23.1429 35.5652 22.4405 33.8695 21.1903 32.6193C19.94 31.369 18.2443 30.6667 16.4762 30.6667C14.7081 30.6667 13.0124 31.369 11.7622 32.6193C10.5119 33.8695 9.80957 35.5652 9.80957 37.3333Z" stroke="white" stroke-width="3"/>
<path d="M42.1908 37.3334C42.1908 39.1015 41.4884 40.7972 40.2381 42.0474C38.9879 43.2976 37.2922 44 35.5241 44C33.756 44 32.0603 43.2976 30.81 42.0474C29.5598 40.7972 28.8574 39.1015 28.8574 37.3334C28.8574 35.5652 29.5598 33.8695 30.81 32.6193C32.0603 31.3691 33.756 30.6667 35.5241 30.6667C37.2922 30.6667 38.9879 31.3691 40.2381 32.6193C41.4884 33.8695 42.1908 35.5652 42.1908 37.3334Z" stroke="white" stroke-width="3"/>
<path d="M23.1426 37.3333C24.7207 36.0638 27.2788 36.0638 28.8569 37.3333" stroke="white" stroke-width="3" stroke-linecap="round"/>
<path d="M6.04762 23.1076C6.15238 24.1448 7.06 24.7019 8.1019 24.739C10.4762 24.8238 15.7705 24.9524 26 24.9524C36.2295 24.9524 41.5238 24.8238 43.8981 24.739C44.94 24.701 45.8476 24.1448 45.9524 23.1076C45.9819 22.82 46 22.4848 46 22.0952C46 21.7057 45.9819 21.3705 45.9524 21.0829C45.8476 20.0457 44.94 19.4886 43.8981 19.4514C41.5238 19.3667 36.2295 19.2381 26 19.2381C15.7705 19.2381 10.4762 19.3667 8.1019 19.4514C7.06 19.4895 6.15238 20.0457 6.04762 21.0829C6.0181 21.3714 6 21.7057 6 22.0952C6 22.4848 6.0181 22.82 6.04762 23.1076Z" stroke="white" stroke-width="3" stroke-linejoin="round"/>
<path d="M10.9668 19.3714C11.2716 16.9905 11.9382 12.5448 13.1382 8.08571C13.6944 6.01619 15.4811 4.55238 17.6163 4.36571C19.7268 4.18095 22.6573 4 26.0001 4C29.343 4 32.2735 4.18095 34.3839 4.36571C36.5192 4.55143 38.3058 6.01619 38.862 8.08571C40.062 12.5457 40.7297 16.9905 41.0335 19.3714" stroke="white" stroke-width="3"/>
</g>
<defs>
<filter id="filter0_d_2212_1911" x="-2" y="0" width="56" height="56" filterUnits="userSpaceOnUse" color-interpolation-filters="sRGB">
<feFlood flood-opacity="0" result="BackgroundImageFix"/>
<feColorMatrix in="SourceAlpha" type="matrix" values="0 0 0 0 0 0 0 0 0 0 0 0 0 0 0 0 0 0 127 0" result="hardAlpha"/>
<feOffset dy="4"/>
<feGaussianBlur stdDeviation="2"/>
<feComposite in2="hardAlpha" operator="out"/>
<feColorMatrix type="matrix" values="0 0 0 0 0 0 0 0 0 0 0 0 0 0 0 0 0 0 0.25 0"/>
<feBlend mode="normal" in2="BackgroundImageFix" result="effect1_dropShadow_2212_1911"/>
<feBlend mode="normal" in="SourceGraphic" in2="effect1_dropShadow_2212_1911" result="shape"/>
</filter>
</defs>
</svg>
