<svg width="60" height="48" viewBox="0 0 60 48" fill="none" xmlns="http://www.w3.org/2000/svg">
<g filter="url(#filter0_d_2212_1939)">
<path fill-rule="evenodd" clip-rule="evenodd" d="M10.1575 19.0714C10.1575 18.0063 11.0233 17.1429 12.0915 17.1429H14.7049C15.3378 17.1429 15.7644 17.348 16.0518 17.6243C16.6912 18.2391 17.3794 19.0886 18.2388 18.8585C19.1966 18.602 20.0013 18.153 20.601 17.732C21.3935 17.1755 21.6217 16.1285 21.1066 15.3117C19.8529 13.324 17.6337 12 15.1 12H12.0915C8.175 12 5 15.166 5 19.0714V28.9286C4.99995 32.834 8.175 36.0001 12.0916 36H15.1001C19.0166 35.9999 22.1915 32.834 22.1915 28.9286V28.1786C22.1915 24.2731 19.0165 21.1071 15.1 21.1071H12.0915C11.421 21.1071 10.7723 21.1999 10.1575 21.3733V19.0714ZM10.1575 28.1688C10.1575 28.172 10.1575 28.1753 10.1575 28.1786L10.1575 28.9285C10.1575 29.9937 11.0233 30.8572 12.0915 30.8571H15.1C16.1682 30.8571 17.0341 29.9937 17.0341 28.9286V28.1786C17.0341 27.1134 16.1682 26.25 15.1 26.25L12.0915 26.2501C11.0266 26.2501 10.1628 27.1082 10.1575 28.1688Z" stroke="white" stroke-width="2"/>
<path fill-rule="evenodd" clip-rule="evenodd" d="M30.7503 12.0792C29.7082 12.0792 27.9059 12.2293 27.0912 12.4438C24.1667 13.2139 23.0119 16.1478 23.0119 18.5814V29.4185C23.0119 31.8521 24.1667 34.786 27.0912 35.5561C27.9059 35.7706 29.7082 35.9207 30.7503 35.9207C31.7925 35.9207 33.5948 35.7706 34.4095 35.5561C37.334 34.786 38.4888 31.8521 38.4888 29.4185V18.5814C38.4888 16.1478 37.334 13.2139 34.4095 12.4438C33.5948 12.2293 31.7925 12.0792 30.7503 12.0792ZM30.7503 17.1881C32.3953 17.1881 33.3298 18.0105 33.3298 19.7425V28.2574C33.3298 30.0857 32.6255 30.8118 30.7503 30.8118C28.8752 30.8118 28.1709 30.0857 28.1709 28.2574V19.7425C28.1709 18.0105 29.1054 17.1881 30.7503 17.1881Z" stroke="white" stroke-width="2"/>
<path fill-rule="evenodd" clip-rule="evenodd" d="M47.2615 12.0792C46.2194 12.0792 44.4171 12.2293 43.6023 12.4438C40.6779 13.2139 39.523 16.1478 39.523 18.5814V29.4185C39.523 31.8521 40.6779 34.786 43.6023 35.5561C44.4171 35.7706 46.2194 35.9207 47.2615 35.9207C48.3036 35.9207 50.106 35.7706 50.9207 35.5561C53.8452 34.786 55 31.8521 55 29.4185V18.5814C55 16.1478 53.8452 13.2139 50.9207 12.4438C50.106 12.2293 48.3036 12.0792 47.2615 12.0792ZM47.2615 17.1881C48.9065 17.1881 49.841 18.0105 49.841 19.7425V28.2574C49.841 30.0857 49.1367 30.8118 47.2615 30.8118C45.3863 30.8118 44.682 30.0857 44.682 28.2574V19.7425C44.682 18.0105 45.6165 17.1881 47.2615 17.1881Z" stroke="white" stroke-width="2"/>
</g>
<defs>
<filter id="filter0_d_2212_1939" x="0" y="0" width="60" height="56" filterUnits="userSpaceOnUse" color-interpolation-filters="sRGB">
<feFlood flood-opacity="0" result="BackgroundImageFix"/>
<feColorMatrix in="SourceAlpha" type="matrix" values="0 0 0 0 0 0 0 0 0 0 0 0 0 0 0 0 0 0 127 0" result="hardAlpha"/>
<feOffset dy="4"/>
<feGaussianBlur stdDeviation="2"/>
<feComposite in2="hardAlpha" operator="out"/>
<feColorMatrix type="matrix" values="0 0 0 0 0 0 0 0 0 0 0 0 0 0 0 0 0 0 0.25 0"/>
<feBlend mode="normal" in2="BackgroundImageFix" result="effect1_dropShadow_2212_1939"/>
<feBlend mode="normal" in="SourceGraphic" in2="effect1_dropShadow_2212_1939" result="shape"/>
</filter>
</defs>
</svg>
