<svg width="48" height="52" viewBox="0 0 48 52" fill="none" xmlns="http://www.w3.org/2000/svg">
<g filter="url(#filter0_d_2212_1954)">
<path d="M30.1753 13.7777L31.664 12.3774C32.864 11.2486 33.6111 9.65048 33.6111 7.87432C33.6111 6.97309 32.9973 6.2161 32.131 6.07855C30.5216 5.82303 27.7462 5.5 24 5.5C20.2538 5.5 17.4784 5.82303 15.869 6.07855M30.1753 13.7777L15.869 6.07855M30.1753 13.7777L31.9576 14.778M30.1753 13.7777L31.9576 14.778M15.869 6.07855C15.0027 6.2161 14.3889 6.97308 14.3889 7.87432M15.869 6.07855L14.3889 7.87432M31.9576 14.778C34.7552 16.3481 37.1651 18.6448 38.9704 21.2345C41.1947 24.4253 42.5 28.0575 42.5 31.3333C42.5 35.4347 40.454 38.2162 37.1213 39.9823C33.7782 41.754 29.1433 42.5 24 42.5C18.8567 42.5 14.2218 41.754 10.8787 39.9823C7.54601 38.2162 5.5 35.4347 5.5 31.3333C5.5 28.0575 6.8053 24.4253 9.02963 21.2345C10.8349 18.6448 13.2448 16.3481 16.0424 14.778L17.8247 13.7777M31.9576 14.778L17.8247 13.7777M17.8247 13.7777L16.336 12.3774M17.8247 13.7777L16.336 12.3774M16.336 12.3774C15.136 11.2486 14.3889 9.65048 14.3889 7.87432M16.336 12.3774L14.3889 7.87432M20.766 18.1296C19.9235 18.3315 19.0673 18.6459 18.2825 19.1285C16.6603 20.126 15.3891 21.8507 15.3891 24.2228C15.3891 25.4804 15.7586 26.6604 16.5078 27.6543C17.1917 28.5615 18.06 29.1396 18.8357 29.5204C17.7226 29.464 16.6086 29.9769 15.9433 30.9704C14.9361 32.4746 15.3389 34.5106 16.8431 35.5178L16.8431 35.5179C17.9502 36.2592 19.3927 36.7115 20.6831 36.9737L20.766 18.1296ZM20.766 18.1296C21.0222 16.5746 22.3729 15.389 23.9999 15.3889C25.6246 15.3887 26.9733 16.5707 27.2328 18.1218C27.2609 18.1273 27.2889 18.1329 27.3169 18.1386L27.3171 18.1387C28.6075 18.4009 30.0501 18.8532 31.1572 19.5945L31.1573 19.5945C32.6615 20.6018 33.0643 22.6377 32.057 24.1419C31.3918 25.1353 30.2779 25.6484 29.1648 25.5921C29.9405 25.9728 30.8087 26.551 31.4925 27.4581C32.2418 28.4519 32.6113 29.6319 32.6113 30.8895C32.6113 33.2616 31.3403 34.9864 29.7179 35.9841L29.7179 35.9841C28.933 36.4667 28.0766 36.781 27.234 36.983M20.766 18.1296L27.234 36.983M27.234 36.983C26.9772 38.537 25.6272 39.7221 24.0005 39.7222C22.3762 39.7224 21.0278 38.541 20.7678 36.9906C20.7396 36.9851 20.7114 36.9794 20.6833 36.9737L27.234 36.983ZM26.9952 24.8233C26.7391 24.7358 26.4096 24.6438 26.0119 24.563L26.9952 24.8233ZM26.9952 24.8233C26.2965 24.6438 25.6157 24.5156 25.0338 24.4111C25.3674 24.4477 25.6968 24.499 26.0117 24.5629L26.9952 24.8233ZM23.2968 24.106C23.2968 24.106 23.2968 24.106 23.2968 24.106ZM23.2968 24.106C22.6964 23.9892 22.189 23.8569 21.743 23.6446L23.2968 24.106ZM21.9886 30.5494C21.5906 30.4686 21.261 30.3765 21.0049 30.289C21.704 30.4686 22.3853 30.5969 22.9675 30.7014C22.6336 30.6648 22.3039 30.6135 21.9887 30.5494L21.9886 30.5494ZM27.5096 25.0416L27.5097 25.0416L27.5096 25.0416ZM21.7092 24.7173C21.7091 24.7173 21.7097 24.7169 21.711 24.7161C21.7099 24.7168 21.7093 24.7172 21.7092 24.7173ZM26.2912 30.3951C26.2914 30.3951 26.2908 30.3955 26.2895 30.3963C26.2905 30.3956 26.2911 30.3952 26.2912 30.3951Z" stroke="white" stroke-width="3"/>
</g>
<defs>
<filter id="filter0_d_2212_1954" x="-4" y="0" width="56" height="56" filterUnits="userSpaceOnUse" color-interpolation-filters="sRGB">
<feFlood flood-opacity="0" result="BackgroundImageFix"/>
<feColorMatrix in="SourceAlpha" type="matrix" values="0 0 0 0 0 0 0 0 0 0 0 0 0 0 0 0 0 0 127 0" result="hardAlpha"/>
<feOffset dy="4"/>
<feGaussianBlur stdDeviation="2"/>
<feComposite in2="hardAlpha" operator="out"/>
<feColorMatrix type="matrix" values="0 0 0 0 0 0 0 0 0 0 0 0 0 0 0 0 0 0 0.25 0"/>
<feBlend mode="normal" in2="BackgroundImageFix" result="effect1_dropShadow_2212_1954"/>
<feBlend mode="normal" in="SourceGraphic" in2="effect1_dropShadow_2212_1954" result="shape"/>
</filter>
</defs>
</svg>
