<svg width="48" height="51" viewBox="0 0 48 51" fill="none" xmlns="http://www.w3.org/2000/svg">
<g filter="url(#filter0_d_2212_1931)">
<path d="M35.8115 23.646C35.5233 22.0837 34.1517 21.3522 32.8869 21.2685C31.6179 21.1845 29.4568 21.0844 25.9666 21.0334C25.9156 17.5432 25.8155 15.3821 25.7315 14.1131C25.6478 12.8483 24.9163 11.4767 23.354 11.1885C22.7535 11.0777 21.9825 11 21 11C20.0175 11 19.2465 11.0777 18.646 11.1885C17.0837 11.4767 16.3522 12.8483 16.2685 14.1131C16.1845 15.3821 16.0844 17.5432 16.0334 21.0334C12.5432 21.0844 10.3821 21.1845 9.11314 21.2685C7.84829 21.3522 6.47669 22.0837 6.18848 23.646C6.07769 24.2465 6 25.0175 6 26C6 26.9825 6.07769 27.7535 6.18847 28.354C6.47669 29.9163 7.84829 30.6478 9.11314 30.7315C10.3821 30.8155 12.5432 30.9156 16.0334 30.9666C16.0844 34.4568 16.1845 36.6179 16.2685 37.8869C16.3522 39.1517 17.0837 40.5233 18.646 40.8115C19.2465 40.9223 20.0175 41 21 41C21.9825 41 22.7535 40.9223 23.354 40.8115C24.9163 40.5233 25.6478 39.1517 25.7315 37.8869C25.8155 36.6179 25.9156 34.4568 25.9666 30.9666C29.4568 30.9156 31.6179 30.8155 32.8869 30.7315C34.1517 30.6478 35.5233 29.9163 35.8115 28.354C35.9223 27.7535 36 26.9825 36 26C36 25.0175 35.9223 24.2465 35.8115 23.646Z" stroke="white" stroke-width="3"/>
<path d="M40.9309 10.6369C40.8252 10.064 40.3223 9.79581 39.8585 9.7651C39.3932 9.7343 38.6008 9.69761 37.3211 9.67891C37.3024 8.39917 37.2657 7.60677 37.2349 7.14148C37.2042 6.67771 36.936 6.17479 36.3631 6.06911C36.1429 6.02849 35.8603 6 35.5 6C35.1397 6 34.8571 6.02849 34.6369 6.06911C34.064 6.17479 33.7958 6.67771 33.7651 7.14148C33.7343 7.60677 33.6976 8.39917 33.6789 9.67891C32.3992 9.69761 31.6068 9.7343 31.1415 9.7651C30.6777 9.79581 30.1748 10.064 30.0691 10.6369C30.0285 10.8571 30 11.1397 30 11.5C30 11.8603 30.0285 12.1429 30.0691 12.3631C30.1748 12.936 30.6777 13.2042 31.1415 13.2349C31.6068 13.2657 32.3992 13.3024 33.6789 13.3211C33.6976 14.6008 33.7343 15.3932 33.7651 15.8585C33.7958 16.3223 34.064 16.8252 34.6369 16.9309C34.8571 16.9715 35.1397 17 35.5 17C35.8603 17 36.1429 16.9715 36.3631 16.9309C36.936 16.8252 37.2042 16.3223 37.2349 15.8585C37.2657 15.3932 37.3024 14.6008 37.3211 13.3211C38.6008 13.3024 39.3932 13.2657 39.8585 13.2349C40.3223 13.2042 40.8252 12.936 40.9309 12.3631C40.9715 12.1429 41 11.8603 41 11.5C41 11.1397 40.9715 10.8571 40.9309 10.6369Z" stroke="white"/>
</g>
<defs>
<filter id="filter0_d_2212_1931" x="-4" y="0" width="56" height="56" filterUnits="userSpaceOnUse" color-interpolation-filters="sRGB">
<feFlood flood-opacity="0" result="BackgroundImageFix"/>
<feColorMatrix in="SourceAlpha" type="matrix" values="0 0 0 0 0 0 0 0 0 0 0 0 0 0 0 0 0 0 127 0" result="hardAlpha"/>
<feOffset dy="4"/>
<feGaussianBlur stdDeviation="2"/>
<feComposite in2="hardAlpha" operator="out"/>
<feColorMatrix type="matrix" values="0 0 0 0 0 0 0 0 0 0 0 0 0 0 0 0 0 0 0.25 0"/>
<feBlend mode="normal" in2="BackgroundImageFix" result="effect1_dropShadow_2212_1931"/>
<feBlend mode="normal" in="SourceGraphic" in2="effect1_dropShadow_2212_1931" result="shape"/>
</filter>
</defs>
</svg>
