<svg width="15" height="16" viewBox="0 0 15 16" fill="none" xmlns="http://www.w3.org/2000/svg">
<g clip-path="url(#clip0_6002_1025)">
<path d="M12.1666 2.80815L12.1667 2.80813C12.4035 2.70845 12.6627 2.67407 12.9173 2.70857C13.172 2.74307 13.4127 2.84518 13.6144 3.00428C13.8162 3.16338 13.9716 3.37365 14.0646 3.61321L13.5984 3.79402L14.0646 3.61321C14.1575 3.85276 14.1845 4.11284 14.1428 4.36638L14.1428 4.36656L12.7253 12.9647L12.7252 12.9651C12.5337 14.1203 11.2595 14.7981 10.1851 14.2146L10.1851 14.2146C9.54422 13.8664 8.58559 13.3265 7.71896 12.76L7.71875 12.7598C7.50178 12.6179 7.0395 12.3061 6.6475 11.9381C6.45275 11.7553 6.25454 11.5395 6.11449 11.3061C5.9793 11.0809 5.85341 10.763 5.94087 10.4166L5.94102 10.416C5.98136 10.257 6.07489 10.1044 6.15521 9.98735C6.24444 9.85732 6.35839 9.71384 6.48606 9.56416C6.62407 9.40234 6.78523 9.22501 6.96136 9.03843C6.31034 9.49577 5.75019 9.87643 5.43568 10.0679L5.43558 10.068C5.08105 10.2837 4.778 10.4312 4.48709 10.5089C4.18263 10.5903 3.91663 10.5887 3.64859 10.5441C3.64855 10.5441 3.6485 10.5441 3.64846 10.544L3.73066 10.0508C2.96441 9.92335 2.25379 9.72585 1.67379 9.48522C0.890035 9.16022 0.92816 8.08272 1.67316 7.76897L12.1666 2.80815ZM12.1666 2.80815L1.47913 7.30815L1.4791 7.30817C0.350846 7.78332 0.262693 9.44129 1.48218 9.94706L12.1666 2.80815Z" stroke="#8688AA"/>
</g>
<defs>
<clipPath id="clip0_6002_1025">
<rect width="15" height="15" fill="white" transform="translate(0 0.5)"/>
</clipPath>
</defs>
</svg>
