<svg width="18" height="16" viewBox="0 0 18 16" fill="none" xmlns="http://www.w3.org/2000/svg">
<path d="M1.62069 2.8125H1.11018L1.1208 3.3229C1.18325 6.32562 1.96493 8.79536 3.45042 10.522C4.94597 12.2604 7.10527 13.1875 9.79055 13.1875H10.081H10.581V12.6875V9.93102C11.9622 10.2808 13.0204 11.395 13.4836 12.8401L13.595 13.1875H13.9598H16.6207H17.2762L17.1029 12.5553C16.4602 10.2115 14.9551 8.73085 13.7206 7.94289C14.8902 7.03368 16.1906 5.44689 16.5509 3.39914L16.6541 2.8125H16.0584H13.6411H13.2628L13.16 3.17663C12.9205 4.0246 12.4426 4.84073 11.8566 5.45889C11.4465 5.89145 11.0059 6.20461 10.581 6.37719V3.3125V2.8125H10.081H7.66374H7.16374V3.3125V9.07136C6.04047 8.44904 4.75617 6.79143 4.68773 3.30269L4.67811 2.8125H4.18782H1.62069Z" stroke="#8688AA"/>
</svg>
