<svg width="48" height="48" viewBox="0 0 48 48" fill="none" xmlns="http://www.w3.org/2000/svg">
<path fill-rule="evenodd" clip-rule="evenodd" d="M42.3901 11.8531C43.322 13.127 43.1137 14.8424 42.2533 16.166C35.3072 26.8509 30.0911 33.8043 26.8356 37.8648C24.7032 40.5248 20.9061 40.7229 18.482 38.3274C15.4927 35.3733 11.3149 30.9837 6.98956 25.6096C5.84571 24.1885 5.60924 22.1938 6.72744 20.7522C7.60277 19.6239 8.58967 18.6453 9.49883 17.8523C11.1799 16.3858 13.6432 16.7139 15.1607 18.3499C19.5346 23.065 22.1651 26.3443 22.1651 26.3443C22.1651 26.3443 26.5399 19.8515 33.5666 9.84953C34.7173 8.2116 36.7901 7.44671 38.52 8.44995C39.7942 9.18912 41.2433 10.2853 42.3901 11.8531Z" stroke="url(#paint0_linear_2212_1974)" stroke-width="3" stroke-linecap="square" stroke-linejoin="round"/>
<defs>
<linearGradient id="paint0_linear_2212_1974" x1="31.4621" y1="33.3333" x2="44.296" y2="32.8209" gradientUnits="userSpaceOnUse">
<stop stop-color="#4E57F5"/>
<stop offset="1" stop-color="#6268F5"/>
</linearGradient>
</defs>
</svg>
