<svg width="48" height="48" viewBox="0 0 48 48" fill="none" xmlns="http://www.w3.org/2000/svg">
<path d="M1.9812 28.0676C1.9812 28.0676 7.9863 25.5013 12.9905 25.5013C16.5209 25.5013 20.3972 26.9204 22.9925 28.0901C24.984 28.9876 26.1306 29.5541 26.5866 31.6905C26.9035 33.1747 25.837 35.6493 24.3242 35.7711L23.2586 35.857M23.2586 35.857C20.8144 35.857 17.0311 35.1324 17.0311 35.1324M23.2586 35.857C26.6481 35.857 35.5722 34.247 38.7344 33.656C39.4889 33.515 40.2703 33.4116 40.9884 33.6826C41.8914 34.0235 43.1019 34.8469 43.6808 36.8353C44.1331 38.3883 43.0471 39.8825 41.5386 40.4663C37.115 42.1782 27.8902 45.5183 23.2586 45.5183C10.9888 45.5183 1.9812 42.4388 1.9812 42.4388M36.9684 11.8044L40.3016 13.0096M40.3016 13.0096C40.3016 13.0096 41.9799 13.408 43.0535 12.8052C45.1152 11.6476 46.4435 9.21757 43.7415 7.22077C42.7176 6.46417 40.7234 5.80227 40.7234 5.80227C40.7234 5.07057 40.6521 3.39477 39.9512 2.91407C39.2126 2.34277 36.8333 2.43267 35.7692 2.64477C35.0733 2.78357 34.6061 3.43937 34.6061 4.16897V5.80227C34.6061 5.80227 30.005 6.75297 30.005 11.2467C30.005 12.8994 30.6163 14.3401 31.5851 15.5452C32.647 16.8712 34.1318 17.3428 35.7221 18.0687M40.3016 13.0096C41.8918 13.7354 43.3766 14.2072 44.4385 15.5331C45.4073 16.7382 46.0186 18.179 46.0186 19.8318C46.0186 24.3253 41.4175 25.276 41.4175 25.276V26.9094C41.4175 27.6389 40.647 28.2494 39.9512 28.3882C38.8871 28.6003 36.811 28.5515 36.0725 27.9802C35.3716 27.4995 35.3002 26.0077 35.3002 25.276C35.3002 25.276 33.306 24.6141 32.2821 23.8575C29.5801 21.8608 30.9084 19.4307 32.9701 18.2731C34.0437 17.6704 35.7221 18.0687 35.7221 18.0687M35.7221 18.0687L39.0552 19.2739" stroke="url(#paint0_linear_2212_1983)" stroke-width="3" stroke-linecap="round" stroke-linejoin="round"/>
<defs>
<linearGradient id="paint0_linear_2212_1983" x1="32.2862" y1="36.5523" x2="47.5663" y2="36.0123" gradientUnits="userSpaceOnUse">
<stop stop-color="#4E57F5"/>
<stop offset="1" stop-color="#6268F5"/>
</linearGradient>
</defs>
</svg>
