<svg style="filter: drop-shadow(0 10px 50px rgba(131, 94, 246, 0.49));-webkit-filter: drop-shadow(0 10px 50px rgba(131, 94, 246, 0.49));" width="48" height="48" viewBox="0 0 48 48" fill="none" xmlns="http://www.w3.org/2000/svg">
<path d="M21 28C24 31.6 28.6 34 33 34M21 28C16.5817 28 13 24.4183 13 20C13 17.0293 14.6192 14.4368 17.0231 13.0569C17.009 12.1771 17 11.1607 17 10C17 7.61836 17.038 5.84446 17.08 4.61045M21 28C25.4183 28 29 24.4183 29 20C29 17.0293 27.3808 14.4368 24.9769 13.0569C24.991 12.1771 25 11.1607 25 10C25 7.61836 24.962 5.84446 24.92 4.61045M24.92 4.61045C24.8748 3.28548 23.9188 2.18748 22.598 2.07273C22.1039 2.0298 21.5594 2 21 2C20.4406 2 19.8961 2.0298 19.402 2.07273C18.0812 2.18748 17.1252 3.28548 17.08 4.61045M24.92 4.61045C24.9033 4.11981 24.7616 3.6605 24.5228 3.27051C32.9452 4.72513 39.7236 11.8706 39.7236 20.3057L44.3562 26.1834C44.7732 26.7125 45 27.3666 45 28.0403C45 29.2311 44.2969 30.3112 43.1881 30.7455C42.1047 31.1699 40.7083 31.6793 39.5 32.0002L38.3683 39.5451C38.1645 40.9038 36.9025 41.8434 35.5424 41.6491L31 41.0002V46.0002M17.08 4.61045C17.0945 4.18622 17.2023 3.78547 17.3856 3.4326C9.15551 5.24665 3 12.5554 3 21.2957C3 28.1749 6.81326 34.6901 12.45 37.8146V46.0002" stroke="url(#paint0_linear_2212_1969)" stroke-width="3" stroke-linecap="round" stroke-linejoin="round"/>
<defs>
<linearGradient id="paint0_linear_2212_1969" x1="31.9029" y1="36.8335" x2="46.4785" y2="36.353" gradientUnits="userSpaceOnUse">
<stop stop-color="#4E57F5"/>
<stop offset="1" stop-color="#6268F5"/>
</linearGradient>
</defs>
</svg>