<svg width="48" height="48" viewBox="0 0 48 48" fill="none" xmlns="http://www.w3.org/2000/svg">
<path d="M24 37.878C22.1224 37.953 19.8201 38 16.9988 38C10.36 38 6.59539 37.7395 4.4744 37.4679C2.73965 37.2457 1.73414 35.841 2.06145 34.123C3.06788 28.8403 6.931 24.5404 12.0234 22.8151C8.4463 20.9996 5.995 17.286 5.995 13C5.995 6.92487 10.9199 2 16.995 2C23.0701 2 27.995 6.92487 27.995 13C27.995 17.2848 25.5451 20.9974 21.9696 22.8135C24.2845 23.597 26.3456 24.9125 28 26.6104M42 32L41.7967 27.1214C41.7007 24.818 39.8054 23 37.5 23C35.1946 23 33.2993 24.818 33.2033 27.1214L33 32M37.5 38V40M29.0863 35.3189C29.1826 33.5696 30.3816 32.3178 32.1279 32.1768C33.3523 32.0779 35.0837 32 37.5 32C40.0469 32 41.8229 32.0866 43.0439 32.193C44.6503 32.3331 45.7677 33.4641 45.8826 35.0724C45.95 36.0165 46 37.2922 46 39C46 40.7078 45.95 41.9835 45.8826 42.9276C45.7677 44.5359 44.6503 45.6669 43.0439 45.807C41.8229 45.9134 40.0469 46 37.5 46C34.9531 46 33.1771 45.9134 31.9561 45.807C30.3497 45.6669 29.2323 44.5359 29.1174 42.9276C29.05 41.9835 29 40.7078 29 39C29 37.4365 29.0359 36.2351 29.0863 35.3189Z" stroke="url(#paint0_linear_2212_1978)" stroke-width="3" stroke-linecap="round" stroke-linejoin="round"/>
<defs>
<linearGradient id="paint0_linear_2212_1978" x1="32.2793" y1="36.8333" x2="47.5473" y2="36.306" gradientUnits="userSpaceOnUse">
<stop stop-color="#4E57F5"/>
<stop offset="1" stop-color="#6268F5"/>
</linearGradient>
</defs>
</svg>
